# xmcd
#
# Track frame offsets: 
#        150
#        12672
#        25195
#        35433
#        47057
#        58734
#        68896
#        79482
#        92791
#        104925
#        115552
#        127658
#        141415
#        151479
#        162106
#        174316
#        183438
#        195360
#        206997
#        218414
#
# Disc length: 3049 seconds
#
# Revision: 2
# Processed by: cddbd v1.5.2PL0 Copyright (c) Steve Scherf et al.
# Submitted via: ExactAudioCopyFreeDBPlugin 1.0
#
DISCID=1a0be714
DTITLE=Various Artist - The Very Best of Vee-Jay Rhythm and Blues [Coll
DTITLE=ectables box set]
DYEAR=2002
DGENRE=Rhythm and Blues
TTITLE0=Jimmy Reed - Honest I Do
TTITLE1=The Spaniels - You Gave Me Peace of Mind
TTITLE2=The El Cincos - Kiss Me
TTITLE3=The Dells - Why Do You Have to Go
TTITLE4=Priscilla Bowman - A Spare Man
TTITLE5=The Falcons - My Only Love
TTITLE6=The Magnificents - Off the Mountain
TTITLE7=The Spaniels - Everyone's Laughing
TTITLE8=Billy "The Kid" Emerson - The Pleasure is All Mine
TTITLE9=Pee Wee Crayton - Is This the Price I Pay
TTITLE10=The Dornells - Raindrops
TTITLE11=The Dells - Pain in My Heart
TTITLE12=The Lyrics - Come on Home
TTITLE13=Pee Wee Crayton - Second Hand Love
TTITLE14=Larry Birdsong - I'm Pleading Just for You
TTITLE15=The Capers - Miss You My Dear
TTITLE16=The Kool Gents - When I Call You
TTITLE17=The Spaniels - I Lost You
TTITLE18=The Spaniels - Here is Why I Love You
TTITLE19=The Magnificents - Don't Leave Me
EXTD=
EXTT0=
EXTT1=
EXTT2=
EXTT3=
EXTT4=
EXTT5=
EXTT6=
EXTT7=
EXTT8=
EXTT9=
EXTT10=
EXTT11=
EXTT12=
EXTT13=
EXTT14=
EXTT15=
EXTT16=
EXTT17=
EXTT18=
EXTT19=
PLAYORDER=
